<svg id="Calque_1" data-name="Calque 1" xmlns="http://www.w3.org/2000/svg" viewBox="0 0 110.78 148.18"><defs></defs><title>LOGO GAIA VECTORISÉ</title><path class="cls-1" d="M25,45.86h-9.3v-30a4.2,4.2,0,0,0,0-1.42,8.21,8.21,0,0,0-1-1.5,12.44,12.44,0,0,0-.86,1.44,2.46,2.46,0,0,0,0,.94V132.49a5.11,5.11,0,0,0,.06,1.57c.11.37.55.64.85.95a4.66,4.66,0,0,0,.91-.92,2.59,2.59,0,0,0,.07-1.09q0-22.2,0-44.39a5.9,5.9,0,0,0-.64-1.75c-.09-.24-.29-.47-.29-.7,0-3,0-6.1,0-9.33,3.33,0,6.48,0,9.64,0,.25,0,.59.48.72.8a3.09,3.09,0,0,1,0,1.1q0,27.34,0,54.69a11.08,11.08,0,0,1-2.32,7.24C20,144.28,16,145,11,143.68c-3.69-.94-6.44-5-6.63-9-.05-1.16-.08-2.33-.08-3.49q0-57.85,0-115.72A12.25,12.25,0,0,1,6,8.65C8.7,4.33,12.33,3.24,17.84,4.26c4,.74,7.25,4.91,7.3,9.3.1,10.51,0,21,0,31.54A5.38,5.38,0,0,1,25,45.86Z"></path><path class="cls-1" d="M106.46,144c-2.9,0-5.59,0-8.27-.06-.34,0-.93-.76-1-1.18-.18-4.33-.25-8.66-.38-13-.08-2.9-.28-5.81-.28-8.71,0-1.64-1-1.57-2.09-1.54s-2.16-.24-2.2,1.56c-.15,7-.49,14-.65,21.07,0,1.47-.53,1.94-1.9,1.91-1.9,0-3.8,0-5.7.05-1.39,0-1.9-.41-1.82-1.93.56-10,1-20,1.52-30.08q1.2-24.3,2.4-48.59Q87.6,34.57,89,5.69c0-1.1.3-1.62,1.53-1.59,2.59.09,5.18.08,7.77,0,1.1,0,1.47.37,1.52,1.44.25,5.7.55,11.39.84,17.09q1.25,24.84,2.47,49.69c.46,9.39.87,18.78,1.32,28.17l2,40.83C106.49,142.11,106.46,142.9,106.46,144ZM94.57,61.24l-.33-.05L92.67,109H96C95.55,93,95.06,77.12,94.57,61.24Z"></path><path class="cls-1" d="M56.35,144H48c-1.08,0-.92-.83-1-1.47-.17-5.38-.34-10.77-.47-16.15-.06-2.21,0-4.42,0-6.39-.49-.28-.57-.37-.67-.38-3.69-.3-3.66-.3-3.77,3.37-.2,6.5-.46,13-.61,19.49,0,1.21-.45,1.54-1.6,1.49-2.11-.07-4.22-.09-6.33,0-1.34.07-1.62-.49-1.55-1.67q.53-9.1,1-18.2Q34.36,96.57,35.71,69q1.36-27.31,2.74-54.61c.15-2.9.3-5.81.37-8.71,0-1.24.52-1.63,1.74-1.59,2.53.08,5.07.06,7.6,0,1.1,0,1.47.35,1.52,1.44.28,6.86.61,13.72,1,20.58.59,11.6,1.23,23.2,1.81,34.81.38,7.7.67,15.41,1,23.11q1,21.21,2.11,42.42.39,7.83.76,15.66C56.37,142.66,56.35,143.18,56.35,144Zm-12-82.91h-.3q-.8,23.91-1.6,47.82H45.9C45.39,92.89,44.88,77,44.37,61.1Z"></path><path class="cls-1" d="M73.85,74v67.82c0,2.17,0,2.17-2.12,2.17-1.8,0-3.6-.07-5.39,0-1.28.07-1.59-.41-1.59-1.63,0-9.71-.16-19.43-.17-29.15q0-49.83,0-99.67c0-2.64.1-5.28,0-7.92,0-1.22.42-1.55,1.56-1.5A54.54,54.54,0,0,0,72,4.1c1.51-.1,1.84.46,1.84,1.88,0,17.59,0,35.18,0,52.77Z"></path></svg>